<svg width="50" height="50" viewBox="0 0 50 50" fill="none" xmlns="http://www.w3.org/2000/svg">
<circle cx="25" cy="25" r="25" fill="#00C2FF"/>
<path d="M9.99992 27.2405C9.99992 24.3523 10.6016 21.8251 11.805 19.6589C13.0352 17.5195 14.7467 15.8748 16.9397 14.7249C19.1593 13.575 21.74 13 24.6817 13C27.5966 13 30.1506 13.575 32.3435 14.7249C34.5631 15.8748 36.2746 17.5195 37.4781 19.6589C38.6815 21.8251 39.2832 24.3523 39.2832 27.2405C39.2832 29.1392 38.989 30.9444 38.4007 32.6559C37.8391 34.3942 37.0368 35.8115 35.9938 36.908L31.5011 34.9424C32.4638 33.6588 33.1591 32.4018 33.587 31.1717C34.0416 29.9683 34.2689 28.698 34.2689 27.3608C34.2689 24.7935 33.4533 22.828 31.822 21.4641C30.1907 20.1002 27.8106 19.4183 24.6817 19.4183C21.526 19.4183 19.1192 20.1002 17.4611 21.4641C15.8298 22.828 15.0142 24.7935 15.0142 27.3608C15.0142 28.698 15.2281 29.9683 15.656 31.1717C16.1106 32.4018 16.8193 33.6588 17.7821 34.9424L13.2893 36.908C12.2463 35.8115 11.4306 34.3942 10.8423 32.6559C10.2807 30.9444 9.99992 29.1392 9.99992 27.2405Z" fill="white"/>
<path d="M19.5694 25.0165L19.5679 25.019C19.0338 25.8881 18.7755 26.8958 18.7755 28.0237C18.7755 28.8448 18.9035 29.607 19.1669 30.3043L19.1669 30.3043L19.1686 30.3087C19.4449 31.0197 19.8557 31.6376 20.3996 32.1568L20.6474 32.3933L20.9574 32.2477L21.986 31.7646L22.597 31.4775L22.1444 30.9767C21.6948 30.4793 21.389 30.0043 21.2094 29.553L21.2094 29.553L21.2081 29.5498C21.0286 29.108 20.9347 28.6068 20.9347 28.0393C20.9347 26.9391 21.2983 26.1482 21.9875 25.5936C22.7059 25.0243 23.7659 24.7055 25.2346 24.7055C26.6919 24.7055 27.7396 25.024 28.4464 25.5914C29.1394 26.1579 29.502 26.9512 29.502 28.0393C29.502 28.6068 29.408 29.108 29.2285 29.5498L29.2285 29.5498L29.2272 29.553C29.0476 30.0043 28.7418 30.4793 28.2922 30.9767L27.8396 31.4776L28.4506 31.7646L29.4792 32.2477L29.7892 32.3933L30.037 32.1568C30.5812 31.6373 30.987 31.0186 31.2525 30.3066C31.5275 29.6086 31.6611 28.8455 31.6611 28.0237C31.6611 26.8958 31.4028 25.8881 30.8687 25.019L30.8688 25.019L30.8672 25.0165C30.3327 24.1585 29.5697 23.5043 28.5978 23.0515C27.6351 22.5979 26.5089 22.3809 25.2346 22.3809C23.9594 22.3809 22.824 22.5982 21.842 23.05L21.842 23.05L21.8399 23.051C20.8674 23.5038 20.1041 24.1582 19.5694 25.0165Z" fill="white" stroke="white"/>
</svg>
